# xmcd
# Track frame offsets:
# 150
# 24067
# 65950
# 85269
# 125868
# 153732
#
# Disc length: 2696 seconds
# Revision: 0
# Processed by: cddbd v1.5.2PL0 Copyright (c) Steve Scherf et al.
# Submitted via: VisiTrax 2.10.2.252 - For more info visit www.synapsa.com
#
DISCID=4f0a8606
DTITLE=Luther Allison - Live in Paris
DYEAR=1900
DGENRE=Blues
TTITLE0=Crazy jealous
TTITLE1=Sweet little angel
TTITLE2=My babe
TTITLE3=Thrill isw gone
TTITLE4=Early in the morning
TTITLE5=Tribute to Hound Dog
EXTD=
EXTT0=
EXTT1=
EXTT2=
EXTT3=
EXTT4=
EXTT5=
PLAYORDER=
